<?xml version="1.0" standalone="no"?>
<!DOCTYPE svg PUBLIC "-//W3C//DTD SVG 20010904//EN"
 "http://www.w3.org/TR/2001/REC-SVG-20010904/DTD/svg10.dtd">
<svg version="1.0" xmlns="http://www.w3.org/2000/svg"
 width="1225.000000pt" height="980.000000pt" viewBox="0 0 1225.000000 980.000000"
 preserveAspectRatio="xMidYMid meet">

<g transform="translate(0.000000,980.000000) scale(0.100000,-0.100000)"
fill="#000000" stroke="none">
<path d="M2509 8731 c-49 -10 -116 -51 -164 -100 l-40 -41 -406 0 c-442 0
-434 1 -515 -58 -81 -59 -185 -228 -258 -418 -72 -191 -152 -517 -187 -761
l-13 -93 -110 0 c-93 0 -116 -3 -143 -20 -96 -58 -172 -274 -209 -598 -20
-172 -14 -553 11 -712 37 -237 93 -397 164 -471 l47 -49 120 0 119 0 29 -178
c86 -531 251 -953 427 -1092 87 -69 104 -71 539 -69 l385 1 43 -41 c24 -23 66
-54 95 -69 l52 -27 455 0 455 0 45 24 c70 37 125 88 185 171 201 280 359 849
420 1520 16 179 23 222 24 160 2 -85 32 -468 47 -595 37 -329 139 -731 228
-900 39 -75 133 -176 184 -199 l39 -18 6 -141 c21 -442 -3 -1583 -48 -2377 -8
-140 -18 -312 -22 -382 l-6 -128 1460 0 1461 0 7 71 c8 78 2 385 -21 1039 -15
444 -60 1553 -68 1677 l-4 72 66 47 c37 26 128 108 203 183 232 233 322 394
454 811 20 63 64 171 98 239 57 114 62 122 68 95 4 -16 25 -123 47 -239 126
-654 340 -1073 577 -1125 34 -8 188 -10 475 -8 l425 3 50 27 c28 14 70 45 95
68 l45 42 385 -1 c426 -2 447 0 528 60 178 131 349 565 439 1112 l27 167 118
0 118 0 38 35 c75 67 140 249 178 500 26 168 27 608 1 775 -45 288 -120 480
-207 525 -21 11 -61 15 -138 15 l-108 0 -27 168 c-99 603 -286 1038 -490 1140
-43 22 -52 22 -452 22 l-408 0 -54 51 c-103 97 -83 94 -593 94 -437 0 -446 0
-493 -22 -58 -27 -145 -108 -202 -188 -198 -278 -353 -851 -412 -1522 l-17
-193 -148 0 -147 0 -79 91 -79 91 -11 152 c-30 398 -123 622 -292 700 -41 19
-60 21 -218 19 -151 -3 -179 -6 -222 -24 -55 -24 -118 -86 -150 -149 l-21 -42
-28 44 c-40 62 -124 134 -179 152 -72 24 -143 28 -303 18 -132 -8 -150 -11
-198 -38 -58 -31 -111 -87 -143 -149 l-20 -39 -18 34 c-34 65 -99 128 -168
162 l-67 33 -186 -2 c-160 -2 -195 -5 -242 -23 -49 -19 -111 -69 -149 -123
-12 -17 -16 -17 -82 0 -62 15 -89 15 -245 6 -187 -12 -260 -27 -356 -72 -151
-70 -284 -233 -350 -431 -11 -30 -22 -59 -25 -63 -4 -4 -14 49 -24 118 -70
528 -209 991 -370 1233 -56 85 -151 176 -213 205 -47 22 -58 22 -473 24 -234
0 -441 -2 -461 -6z m521 -80 c0 -6 -5 -13 -10 -16 -6 -4 -47 -61 -92 -128
-165 -249 -290 -399 -385 -461 -38 -25 -42 -32 -67 -129 -81 -315 -136 -645
-166 -1007 -6 -74 -15 -178 -19 -230 -12 -145 -13 -25 -1 190 21 382 61 706
119 980 16 74 28 137 26 138 -2 2 -27 -1 -55 -7 -28 -6 -76 -11 -106 -11 -49
0 -59 -4 -86 -30 -17 -17 -32 -29 -34 -28 -1 2 10 50 26 108 16 57 28 106 26
108 -2 2 -22 -43 -44 -100 -133 -346 -196 -750 -224 -1450 -18 -454 6 -831 73
-1128 12 -52 26 -102 31 -110 7 -11 8 -8 4 10 -9 44 -26 229 -41 450 -16 240
-19 638 -4 516 13 -95 35 -178 69 -253 l29 -63 48 0 c26 0 91 3 144 6 l96 7 6
286 c7 297 28 630 52 805 10 69 13 80 10 36 -21 -323 -27 -538 -23 -817 l5
-322 31 -35 c43 -50 59 -110 77 -296 49 -512 101 -806 196 -1095 60 -183 171
-402 261 -517 16 -21 26 -38 22 -38 -4 0 -36 19 -72 42 -91 59 -132 67 -282
56 -210 -15 -261 2 -361 125 -51 64 -136 220 -174 321 -114 304 -214 807 -245
1238 -15 213 -12 701 5 933 26 353 100 861 156 1080 111 431 337 703 665 800
115 34 314 57 314 36z m6337 -2 c412 -55 674 -304 813 -771 55 -185 130 -653
166 -1028 22 -234 30 -780 15 -1007 -28 -420 -99 -813 -210 -1168 -61 -192
-150 -366 -240 -467 -79 -88 -137 -104 -341 -90 -148 11 -188 2 -278 -58 -33
-22 -62 -40 -65 -40 -2 0 24 43 60 97 227 340 337 740 413 1511 25 259 32 284
86 343 24 26 24 26 31 330 5 268 -2 519 -22 824 -9 127 4 53 19 -115 26 -269
35 -439 42 -726 l7 -271 105 -7 c191 -11 174 -16 210 62 34 73 60 170 72 272
14 121 11 -281 -5 -512 -15 -223 -31 -408 -41 -465 -4 -18 -4 -33 -1 -33 3 0
17 48 31 108 69 290 96 692 77 1139 -25 604 -73 970 -166 1285 -28 93 -96 270
-102 265 -2 -2 8 -46 22 -98 32 -119 31 -123 -4 -90 -26 25 -40 29 -118 34
-48 4 -99 10 -112 13 -22 6 -24 5 -18 -17 22 -81 70 -343 91 -500 27 -197 52
-507 60 -734 5 -159 -1 -118 -29 205 -9 102 -27 266 -41 365 -45 318 -134 708
-167 727 -89 49 -224 203 -362 410 -49 73 -101 149 -117 169 -15 20 -28 40
-28 43 0 9 59 7 147 -5z m-5919 -30 c145 -72 280 -303 387 -662 123 -410 219
-1147 150 -1147 -16 0 -19 23 -36 215 -22 262 -77 588 -139 815 -72 265 -166
470 -264 576 -69 76 -119 104 -191 104 -70 0 -139 -42 -202 -122 -70 -88 -74
-100 -19 -50 125 114 246 107 364 -22 196 -215 341 -708 405 -1378 l13 -138
-171 0 -172 0 -26 101 c-121 460 -346 398 -446 -123 -101 -525 3 -1235 195
-1328 47 -23 80 -17 122 23 50 47 114 193 143 326 l11 51 169 0 169 0 0 -39
c0 -21 -7 -103 -15 -181 -51 -482 -154 -892 -285 -1137 -149 -277 -313 -336
-484 -174 l-49 46 44 -64 c86 -125 189 -185 277 -162 202 55 380 425 487 1014
26 145 59 395 70 532 12 157 14 165 41 165 28 0 29 -3 14 -165 -54 -585 -171
-1078 -325 -1372 -170 -323 -373 -392 -561 -191 -226 242 -389 810 -461 1598
-21 241 -24 913 -5 1145 54 640 157 1104 316 1429 146 297 302 401 474 315z
m5558 7 c127 -59 242 -223 339 -481 277 -742 344 -2026 159 -3025 -108 -582
-295 -989 -497 -1080 -55 -25 -139 -25 -194 0 -216 97 -409 542 -515 1185
l-31 190 20 45 c24 54 19 70 62 -200 129 -823 397 -1255 664 -1071 25 17 66
57 90 89 64 83 66 92 13 44 -61 -56 -118 -82 -181 -82 -241 -1 -466 502 -565
1259 -16 118 -19 181 -14 259 l7 102 156 0 157 0 23 -94 c25 -105 73 -213 116
-265 138 -163 288 48 351 494 23 164 23 505 0 675 -45 335 -146 550 -256 550
-81 0 -161 -121 -211 -317 l-23 -92 -170 -3 -169 -3 6 105 c18 304 94 714 182
978 97 292 204 459 330 518 92 43 176 24 260 -60 56 -57 57 -48 2 25 -98 130
-195 175 -294 138 -218 -82 -413 -579 -502 -1285 -16 -127 -40 -367 -41 -406
0 -5 -11 -8 -25 -8 -31 0 -31 5 -10 226 102 1071 426 1746 761 1590z m-7160
-289 c-141 -213 -229 -323 -298 -374 -58 -42 -60 -45 -104 -233 -62 -262 -101
-534 -133 -915 -20 -238 -27 -190 -11 70 23 357 56 633 106 879 13 65 24 123
24 127 0 5 -11 4 -24 -1 -20 -7 -94 -16 -162 -19 -6 -1 -23 -13 -38 -27 -23
-24 -26 -25 -26 -7 0 10 11 57 24 104 38 131 4 66 -47 -90 -102 -308 -153
-686 -177 -1291 -11 -289 -2 -591 25 -809 16 -129 59 -349 71 -360 4 -3 4 10
1 29 -20 116 -58 743 -56 910 2 73 0 78 35 -103 9 -48 29 -114 45 -147 32 -68
20 -65 190 -54 l96 7 6 296 c6 281 27 626 47 750 9 54 9 53 4 -19 -14 -232
-23 -614 -17 -813 6 -207 8 -230 26 -250 42 -47 56 -101 72 -268 73 -776 175
-1173 384 -1492 28 -43 51 -80 51 -82 0 -2 -26 14 -57 35 -84 59 -126 69 -263
59 -110 -7 -190 0 -228 20 -33 18 -108 106 -150 176 -174 294 -303 899 -333
1559 -28 628 73 1533 215 1925 30 83 120 241 172 305 143 173 364 280 590 285
l62 1 -122 -183z m8669 158 c99 -24 239 -94 316 -158 165 -137 290 -382 353
-693 55 -271 104 -646 127 -978 15 -219 6 -841 -15 -1021 -74 -641 -217 -1121
-393 -1314 -74 -82 -120 -95 -298 -82 -150 10 -160 7 -299 -84 -27 -18 -25
-13 21 55 209 311 319 708 383 1385 26 278 33 313 77 378 l35 52 -6 485 c-4
267 -8 512 -10 545 -3 33 1 13 9 -45 21 -172 36 -417 42 -711 l6 -277 125 -7
c114 -7 127 -6 139 11 33 45 82 219 83 294 0 23 3 30 9 20 16 -30 -18 -734
-44 -920 -10 -66 12 2 34 106 41 200 53 338 58 682 12 722 -59 1326 -197 1702
-42 115 -52 120 -24 13 31 -116 31 -121 -12 -83 -20 17 -43 29 -51 26 -8 -3
-46 -1 -85 4 -39 6 -73 9 -75 6 -2 -2 7 -63 21 -135 63 -323 98 -644 110
-1016 4 -146 4 -147 -5 -45 -52 579 -96 873 -171 1152 -20 73 -24 79 -78 121
-69 54 -166 173 -267 327 -41 63 -93 142 -114 174 l-40 59 83 -6 c46 -3 115
-13 153 -22z m-8275 11 c0 -17 -82 -140 -120 -181 -49 -53 -100 -119 -100
-130 0 -4 21 14 46 40 26 25 48 44 50 43 2 -2 -15 -53 -37 -113 -305 -827
-353 -2288 -108 -3301 31 -131 98 -346 130 -421 11 -25 18 -48 16 -50 -3 -2
-25 17 -51 41 -25 25 -46 43 -46 40 0 -14 84 -123 109 -142 26 -19 118 -169
109 -178 -9 -8 -76 17 -120 45 -343 218 -568 1438 -487 2641 58 856 273 1537
522 1650 38 18 87 26 87 16z m7856 -17 c141 -68 282 -330 379 -704 69 -266
120 -613 145 -980 14 -206 14 -744 0 -950 -65 -949 -297 -1632 -574 -1695 -20
-4 -36 -4 -36 0 0 22 80 142 132 198 32 34 65 76 73 92 13 26 10 24 -31 -16
-26 -24 -48 -43 -50 -41 -2 2 12 46 32 98 109 291 191 693 240 1169 22 212 30
880 15 1133 -34 549 -122 1019 -259 1395 -17 45 -28 82 -24 82 3 0 26 -19 51
-42 l44 -43 -19 34 c-10 19 -44 62 -75 95 -46 50 -129 174 -129 192 0 11 48 2
86 -17z m-4383 -734 c20 -10 37 -22 37 -25 0 -3 -27 -4 -60 -2 -79 6 -232 -13
-315 -39 -37 -11 -65 -22 -63 -25 2 -2 38 3 79 11 41 8 146 18 235 22 l161 6
22 -31 c44 -63 92 -189 115 -307 5 -26 3 -24 -20 15 -23 41 -25 43 -20 14 28
-178 31 -232 31 -619 0 -344 -3 -428 -18 -525 -10 -63 -23 -130 -28 -148 -6
-18 -9 -36 -6 -39 8 -7 46 71 72 147 l22 65 7 -116 c8 -115 3 -200 -15 -270
-9 -35 -12 -37 -69 -48 -118 -23 -317 -13 -454 24 -18 5 -18 4 -4 -4 9 -6 65
-23 125 -37 91 -22 121 -25 190 -20 45 4 106 13 135 21 29 7 54 12 56 11 1 -2
-12 -17 -29 -34 -42 -41 -103 -61 -221 -72 -114 -11 -174 -2 -250 36 -56 28
-148 100 -148 115 0 5 11 26 24 47 57 86 58 102 53 704 -3 473 -6 566 -21 643
-23 122 -70 258 -111 328 -19 32 -35 62 -35 66 0 15 88 90 112 96 35 8 161 12
273 10 73 -2 110 -7 138 -20z m833 14 c30 -8 61 -27 92 -56 26 -25 39 -42 28
-39 -69 22 -160 28 -265 17 -98 -10 -249 -46 -239 -56 2 -2 42 3 88 11 94 17
353 24 413 11 32 -7 41 -15 63 -58 32 -65 82 -253 90 -345 l6 -71 -88 -12
c-49 -6 -170 -16 -269 -22 -217 -12 -284 -22 -339 -49 -23 -11 -45 -20 -49
-20 -4 0 -7 22 -7 50 0 69 -27 250 -50 339 l-19 74 28 61 c33 72 71 120 115
144 51 27 320 41 402 21z m818 0 c21 -6 57 -28 80 -50 l41 -40 -30 8 c-52 14
-248 7 -330 -12 -72 -16 -177 -53 -115 -41 134 27 349 42 434 31 l58 -7 24
-53 c45 -97 74 -233 99 -463 l5 -42 -73 55 c-139 106 -209 117 -473 71 -84
-14 -154 -26 -157 -26 -3 0 -8 32 -12 72 -4 39 -17 116 -30 170 l-22 99 23 55
c30 74 71 132 108 152 49 27 299 41 370 21z m-2352 -141 c39 -11 128 -81 118
-91 -3 -3 -26 -1 -50 5 -99 23 -383 -11 -449 -53 -13 -8 -12 -9 4 -5 106 29
400 47 485 30 39 -8 60 -51 96 -198 25 -107 26 -141 0 -54 -9 29 -29 80 -46
113 -17 33 -28 51 -24 40 17 -54 44 -249 55 -391 20 -272 -3 -649 -47 -758 -5
-13 -4 -17 3 -13 15 9 70 142 78 190 4 20 11 40 16 43 13 7 11 -351 -2 -406
-23 -102 -84 -137 -259 -147 -121 -7 -185 10 -270 73 -34 25 -60 47 -58 49 2
2 37 -5 78 -16 41 -11 105 -23 142 -26 73 -6 206 11 253 33 26 12 27 14 5 9
-102 -21 -231 -25 -329 -11 -158 24 -172 29 -204 78 -51 79 -95 266 -125 528
l-17 155 -187 3 -188 2 0 33 c0 53 28 208 51 283 30 98 103 243 158 310 89
111 224 178 388 194 125 12 283 11 325 -2z m4775 -410 c-3 -7 -5 -2 -5 12 0
14 2 19 5 13 2 -7 2 -19 0 -25z m-8938 -65 c-28 -43 -73 -100 -100 -128 -60
-63 -76 -119 -114 -415 l-14 -105 5 90 c6 98 27 265 42 333 11 47 12 46 -56
31 l-50 -10 -16 -62 c-43 -172 -65 -525 -47 -730 7 -70 16 -138 22 -150 8 -18
8 -16 4 13 -6 47 -15 332 -9 300 3 -14 12 -44 20 -67 l16 -43 54 0 54 0 1 118
c2 216 16 267 17 66 2 -142 5 -188 18 -213 8 -17 20 -75 25 -129 22 -242 52
-369 117 -502 25 -52 48 -99 50 -104 3 -6 -8 0 -23 12 -23 18 -41 22 -106 22
-69 0 -81 3 -108 26 -59 50 -120 220 -157 439 -21 126 -29 414 -15 570 31 351
74 512 165 613 52 57 144 98 224 101 l33 1 -52 -77z m10634 54 c122 -42 202
-158 241 -348 53 -259 68 -671 33 -894 -35 -222 -103 -417 -164 -465 -21 -16
-40 -20 -102 -20 -52 0 -83 -5 -97 -15 -34 -26 -34 -16 1 48 68 123 104 266
129 506 10 89 21 152 31 167 12 18 15 60 17 201 1 138 3 162 8 108 4 -38 8
-118 9 -177 l1 -106 51 -4 c28 -1 54 1 57 7 3 5 14 37 24 70 l18 60 -5 -135
c-3 -74 -8 -155 -10 -180 -4 -40 -4 -42 5 -15 5 17 15 92 21 167 18 225 -12
588 -60 743 -11 33 -20 53 -20 44 -1 -14 -7 -15 -47 -7 -25 6 -47 8 -49 6 -1
-1 5 -46 16 -98 10 -52 20 -142 23 -200 5 -113 2 -106 -15 35 -20 168 -46 267
-77 295 -35 31 -86 97 -136 174 l-38 59 50 -7 c28 -3 66 -12 85 -19z m-4126
-52 c3 -9 -2 -36 -12 -61 -9 -25 -15 -47 -13 -49 2 -2 21 20 43 50 21 30 43
51 48 48 6 -3 7 -37 4 -79 -3 -41 -3 -74 -1 -74 3 0 16 25 30 55 14 30 29 55
34 55 31 0 472 -512 572 -664 95 -145 174 -330 194 -456 l7 -40 -69 -1 -69 -1
40 -19 c22 -10 55 -21 73 -25 26 -5 32 -11 32 -31 0 -27 -38 -48 -111 -59 -37
-6 -40 -8 -20 -15 12 -5 47 -10 77 -11 53 -2 54 -3 54 -33 0 -44 -25 -151 -50
-218 -27 -72 -34 -70 -15 3 8 30 15 68 15 83 0 23 -8 14 -41 -50 -50 -93 -93
-157 -273 -403 -86 -117 -162 -234 -207 -320 -136 -256 -191 -332 -298 -413
-135 -104 -292 -177 -486 -227 -137 -36 -269 -55 -500 -75 -333 -29 -466 -52
-545 -95 l-35 -19 160 5 c120 5 220 1 399 -15 201 -18 258 -20 365 -11 297 24
531 119 713 289 128 120 190 206 417 574 40 65 75 117 77 115 6 -7 -54 -186
-92 -275 -78 -183 -169 -314 -338 -490 -261 -271 -393 -346 -714 -404 -101
-18 -145 -21 -316 -17 -109 2 -190 1 -180 -3 23 -8 174 -34 316 -53 238 -33
388 -168 447 -402 39 -155 45 -259 43 -669 -2 -348 0 -407 19 -545 21 -156 21
-195 3 -462 -5 -60 -1 -117 9 -180 9 -51 18 -141 20 -200 l4 -108 -1275 0
-1274 0 6 93 c37 562 60 1818 48 2607 -2 118 0 214 5 213 164 -31 260 -31 369
-2 173 47 201 50 424 57 l225 7 -120 15 c-133 16 -343 18 -595 6 -179 -9 -250
0 -345 45 -139 66 -270 260 -345 510 -66 222 -102 472 -128 882 l-18 267 328
0 c180 0 328 -3 327 -7 0 -5 -50 -32 -111 -62 -101 -50 -223 -129 -214 -138 2
-3 22 5 44 16 65 33 208 71 347 92 133 19 255 25 255 11 0 -4 -16 -16 -36 -27
-46 -25 -201 -157 -252 -215 -82 -94 -146 -213 -167 -310 -7 -34 -6 -34 55 33
134 145 304 235 515 271 142 24 393 47 480 44 l80 -3 -65 -32 c-176 -86 -342
-291 -420 -517 -22 -64 -15 -73 17 -18 53 91 196 231 318 310 153 99 404 216
510 237 l30 6 -40 -33 c-78 -64 -148 -134 -194 -193 -70 -89 -72 -97 -5 -30
78 79 150 133 260 196 233 135 647 280 914 321 92 14 490 18 575 6 l50 -7 -40
21 c-55 29 -154 56 -265 73 l-95 14 -53 58 c-65 70 -164 197 -218 278 -42 64
-81 146 -109 233 l-17 54 36 30 c35 28 66 75 66 97 0 6 -20 -4 -44 -23 -110
-84 -384 -121 -560 -76 -103 26 -230 93 -288 152 -47 48 -88 134 -88 184 0 56
36 106 91 126 15 6 16 -1 12 -55 -5 -57 -3 -64 20 -86 14 -13 45 -27 69 -32
111 -21 307 0 389 42 41 21 58 39 36 39 -21 0 -57 44 -72 87 -7 21 -12 39 -10
41 2 2 54 10 117 18 62 8 203 30 313 48 231 39 293 43 302 21z m-3951 -61 c41
-20 83 -85 118 -182 38 -108 39 -108 -41 -104 -38 1 -82 5 -99 8 -28 5 -34 2
-53 -29 -92 -150 -102 -678 -16 -873 25 -56 59 -84 78 -65 6 6 44 11 84 11 57
0 73 -3 73 -14 0 -30 -58 -177 -86 -217 -15 -23 -43 -48 -61 -57 -30 -14 -36
-14 -68 1 -70 33 -133 180 -171 397 -27 148 -27 590 -1 730 43 227 107 369
182 400 27 12 23 12 61 -6z m5537 -23 c61 -55 109 -186 144 -386 27 -156 24
-568 -5 -728 -76 -414 -231 -519 -345 -234 -14 35 -28 80 -32 100 l-7 37 74 0
c42 0 79 -5 85 -11 20 -20 59 15 81 73 41 109 55 243 49 461 -6 213 -21 309
-58 382 -26 49 -48 66 -71 54 -9 -5 -49 -9 -88 -9 l-72 0 7 37 c9 51 50 150
81 196 28 42 77 69 109 60 11 -3 33 -17 48 -32z m-2343 -38 c5 -21 19 -51 30
-68 11 -16 20 -33 20 -36 0 -12 -116 -38 -195 -45 -96 -7 -205 9 -222 33 -16
21 -16 57 -1 98 11 32 12 32 92 39 45 3 106 6 137 6 50 0 58 -3 63 -22 3 -13
15 -34 26 -48 l19 -25 -15 43 c-16 48 -12 62 16 62 14 0 22 -11 30 -37z
m-4603 -360 c-2 -21 -4 -6 -4 32 0 39 2 55 4 38 2 -18 2 -50 0 -70z m2449 36
c-3 -17 -6 -40 -6 -50 0 -18 -16 -19 -412 -19 -255 0 -427 -4 -450 -11 -54
-14 -103 -70 -127 -143 -23 -69 -40 -169 -42 -236 0 -25 -5 -54 -10 -65 -17
-37 -3 314 15 363 33 91 99 159 174 182 15 5 215 9 446 9 l419 1 -7 -31z
m4144 3 c81 -26 167 -85 200 -135 l24 -38 13 78 c7 43 15 83 17 88 3 6 5 -89
5 -210 l0 -220 -23 60 c-60 161 -187 270 -343 295 -32 6 -150 10 -263 10
l-205 1 -32 43 c-18 24 -33 46 -33 50 0 5 129 6 288 4 259 -4 293 -7 352 -26z
m1667 -59 c-2 -16 -4 -3 -4 27 0 30 2 43 4 28 2 -16 2 -40 0 -55z m-4010 -85
c152 -80 326 -106 494 -74 47 9 89 16 93 16 4 0 6 -136 4 -302 -4 -396 7 -369
-171 -433 -158 -57 -234 -63 -329 -26 -85 33 -182 114 -241 201 -15 22 -17 64
-17 383 l0 359 49 -44 c27 -25 80 -61 118 -80z m-5220 40 c-3 -8 -6 -5 -6 6
-1 11 2 17 5 13 3 -3 4 -12 1 -19z m3398 -73 c0 -20 -8 -20 -407 -23 -225 -1
-408 1 -408 5 0 5 12 15 28 25 24 14 68 16 407 15 373 -2 380 -2 380 -22z
m4185 2 l35 -22 -259 -3 c-230 -2 -261 0 -278 14 -10 10 -18 21 -18 26 0 4
109 8 243 8 234 0 243 -1 277 -23z m3017 -9 c-3 -7 -5 -2 -5 12 0 14 2 19 5
13 2 -7 2 -19 0 -25z m-4669 -212 c27 -61 110 -181 207 -301 l82 -101 -120
-17 c-130 -19 -132 -19 -166 37 -16 27 -19 58 -24 229 -3 108 -4 197 -2 197 2
0 13 -20 23 -44z"/>
<path d="M5480 5926 c66 -38 302 -50 392 -20 55 18 61 29 7 14 -66 -19 -301
-10 -404 16 -15 3 -13 1 5 -10z"/>
<path d="M4710 6134 c86 -40 293 -52 382 -22 45 15 61 31 17 17 -63 -20 -295
-11 -414 16 -11 3 -4 -2 15 -11z"/>
<path d="M3322 7023 c-45 -38 -87 -154 -118 -318 -25 -136 -31 -506 -10 -660
27 -207 79 -362 134 -406 32 -25 45 -24 79 6 l28 24 -31 -11 c-27 -10 -35 -8
-62 11 -92 65 -146 316 -146 671 0 237 13 349 56 490 40 131 101 205 147 180
30 -16 36 -12 16 10 -22 25 -66 26 -93 3z"/>
<path d="M8834 7019 c-19 -21 -19 -21 9 -8 24 11 31 10 55 -8 100 -74 156
-312 156 -668 0 -296 -39 -510 -113 -627 -33 -52 -65 -67 -103 -47 -23 12 -23
12 -4 -9 48 -55 94 -31 141 71 68 149 101 392 92 692 -8 298 -61 529 -137 605
-26 26 -72 25 -96 -1z"/>
<path d="M6260 5942 c70 -46 333 -63 423 -28 54 21 59 31 6 15 -65 -19 -283
-11 -419 17 -19 4 -21 3 -10 -4z"/>
<path d="M6239 5864 c19 -9 71 -25 115 -36 131 -33 346 -14 411 37 18 13 17
14 -15 1 -49 -20 -223 -38 -290 -31 -52 6 -191 30 -235 40 -11 3 -4 -2 14 -11z"/>
</g>
</svg>
