<?xml version="1.0" standalone="no"?>
<!DOCTYPE svg PUBLIC "-//W3C//DTD SVG 20010904//EN"
 "http://www.w3.org/TR/2001/REC-SVG-20010904/DTD/svg10.dtd">
<svg version="1.0" xmlns="http://www.w3.org/2000/svg"
 width="800.000000pt" height="800.000000pt" viewBox="0 0 800.000000 800.000000"
 preserveAspectRatio="xMidYMid meet">

<g transform="translate(0.000000,800.000000) scale(0.100000,-0.100000)"
fill="#000000" stroke="none">
<path d="M3825 7159 c-276 -43 -508 -159 -703 -352 -172 -169 -272 -346 -340
-597 -23 -86 -26 -114 -26 -285 -1 -140 3 -214 16 -280 74 -390 277 -799 526
-1057 l55 -57 -68 -253 c-38 -139 -72 -267 -77 -284 l-8 -31 -188 -6 c-213 -6
-352 -28 -514 -81 -428 -140 -719 -425 -794 -776 -11 -53 -14 -262 -14 -1140
1 -1138 -1 -1093 47 -1118 30 -17 4491 -17 4526 -1 14 6 30 21 36 33 9 15 11
312 9 1121 -3 1088 -4 1101 -24 1165 -91 278 -276 482 -574 631 -217 109 -431
158 -722 166 l-188 6 -8 31 c-5 17 -39 145 -77 284 l-68 252 59 63 c321 337
544 880 544 1322 0 600 -409 1103 -1000 1231 -89 19 -338 27 -425 13z m83
-825 c-2 -1 -59 -8 -128 -14 -104 -9 -240 -28 -403 -57 -26 -5 -27 -4 -17 23
24 62 95 193 142 260 74 108 188 225 301 311 l102 76 3 -298 c1 -164 1 -299 0
-301z m322 499 c156 -125 295 -300 381 -480 22 -47 39 -87 36 -89 -2 -2 -69 7
-148 20 -116 21 -333 45 -396 46 -10 0 -13 67 -13 301 l0 300 31 -18 c17 -10
66 -46 109 -80z m-722 -3 c-143 -153 -247 -316 -317 -497 -23 -59 -45 -114
-49 -122 -4 -7 -50 -28 -101 -47 l-93 -33 6 40 c10 65 69 210 120 296 96 161
251 309 412 395 49 26 91 48 92 48 2 0 -30 -36 -70 -80z m1131 -48 c103 -77
193 -171 262 -276 60 -90 133 -259 145 -333 l6 -41 -91 32 c-50 17 -95 36 -99
41 -5 6 -21 46 -37 90 -66 192 -183 378 -340 544 l-70 74 75 -38 c41 -20 108
-62 149 -93z m-326 -647 c219 -26 523 -102 684 -172 l42 -18 -60 -105 c-33
-58 -64 -109 -69 -114 -4 -4 -54 8 -112 29 -123 44 -297 89 -422 111 -124 21
-492 30 -627 15 -199 -23 -470 -89 -613 -150 l-43 -19 -67 109 c-36 60 -66
113 -66 118 0 10 0 10 150 62 196 68 415 118 607 138 134 14 459 12 596 -4z
m12 -440 c137 -21 320 -69 429 -111 187 -72 194 -74 220 -65 13 6 32 20 41 33
19 26 20 30 -15 -92 -77 -262 -241 -554 -419 -742 -194 -205 -380 -301 -581
-301 -202 1 -384 95 -578 298 -166 173 -327 452 -412 716 -46 139 -48 151 -20
117 32 -41 64 -40 171 3 224 89 444 142 669 163 90 8 397 -4 495 -19z m-569
-1415 c94 -32 106 -34 244 -34 139 0 149 1 244 33 54 19 134 56 177 82 44 26
79 45 79 43 0 -2 17 -68 39 -147 21 -78 53 -196 71 -263 l33 -121 -37 -69
c-94 -180 -256 -308 -451 -359 -67 -17 -227 -20 -295 -5 -209 47 -398 202
-484 397 l-18 42 71 259 c39 143 71 263 71 265 0 3 35 -16 79 -42 43 -26 123
-63 177 -81z m-519 -560 c123 -226 304 -372 550 -442 112 -32 314 -32 428 0
234 66 436 229 545 439 35 68 35 68 80 70 25 1 51 0 57 -2 10 -3 -276 -423
-664 -972 l-44 -63 -39 20 c-80 41 -219 41 -298 1 l-39 -20 -279 399 c-154
220 -317 454 -363 521 l-83 120 57 -3 57 -3 35 -65z m-244 -102 c63 -90 245
-351 405 -580 l291 -417 -22 -48 c-21 -47 -22 -59 -25 -459 l-3 -411 26 -32
c23 -27 33 -31 73 -31 26 1 78 7 116 14 98 19 108 34 130 177 9 63 21 146 27
185 l11 70 58 12 c78 17 167 77 213 145 68 100 83 220 42 335 l-18 48 403 577
403 577 36 -5 c333 -54 571 -160 751 -336 125 -122 200 -265 219 -419 7 -54
11 -429 11 -1047 l0 -963 -320 0 -320 0 0 454 0 453 -25 27 c-33 36 -92 36
-126 0 l-24 -26 -3 -454 -3 -454 -1319 0 -1319 0 -3 454 -3 454 -24 26 c-24
26 -68 34 -106 20 -43 -17 -45 -40 -45 -508 l0 -445 -316 -3 c-219 -2 -318 0
-321 8 -2 6 -2 465 0 1020 3 933 4 1013 21 1068 79 265 302 474 636 594 121
44 169 55 352 81 3 1 58 -72 121 -161z m1074 -1003 c48 -20 71 -41 94 -87 53
-103 -7 -231 -120 -257 -66 -14 -124 4 -173 56 -130 137 25 361 199 288z
m-232 -580 l-13 -80 -1 95 c-1 81 1 92 13 80 12 -13 12 -28 1 -95z"/>
</g>
</svg>
